<?xml version="1.0" encoding="UTF-8"?>
<svg version="1.1" xmlns="http://www.w3.org/2000/svg" width="500" height="500">
<path d="M0 0 C2.46113586 1.70596313 2.46113586 1.70596313 4.88793945 4.12744141 C5.80521317 5.02902985 6.72248688 5.93061829 7.66755676 6.85952759 C8.65015875 7.85618899 9.63205005 8.8535515 10.61328125 9.8515625 C11.63269287 10.86947108 12.65306846 11.8864151 13.67436218 12.9024353 C15.80966632 15.03341045 17.93401984 17.17457971 20.05102539 19.32373047 C22.76058802 22.0730484 25.49395129 24.79714528 28.23577595 27.51424599 C30.34605947 29.6103214 32.44400806 31.71840209 34.53838158 33.83036423 C35.54154462 34.83936332 36.54827677 35.84482725 37.55864906 36.84660721 C38.97100618 38.25094252 40.36543438 39.67323932 41.7590332 41.09619141 C42.55590042 41.9000528 43.35276764 42.70391418 44.17378235 43.53213501 C47.75835929 48.37616438 47.14263206 54.1273041 47.11352539 59.93310547 C47.11367142 60.7045137 47.11381744 61.47592194 47.1139679 62.27070618 C47.11327508 64.80289591 47.10551241 67.33501072 47.09765625 69.8671875 C47.09578983 71.6298112 47.09436698 73.39243541 47.09336853 75.15505981 C47.08956103 79.78118334 47.07974589 84.40727518 47.06866455 89.03338623 C47.05841238 93.75923229 47.05386277 98.48508351 47.04882812 103.2109375 C47.03812197 112.47397445 47.02053955 121.73697963 47 131 C52.61 131 58.22 131 64 131 C64 132.65 64 134.3 64 136 C41.56 136 19.12 136 -4 136 C-5.71113963 132.57772073 -5.13788068 128.65338485 -5.12939453 124.88793945 C-5.13202301 123.47059258 -5.13202301 123.47059258 -5.13470459 122.02461243 C-5.13912084 118.88748357 -5.13618472 115.75041072 -5.1328125 112.61328125 C-5.13348589 110.43572478 -5.1344562 108.25816839 -5.13571167 106.08061218 C-5.13718857 101.50824267 -5.13503539 96.93589265 -5.13037109 92.36352539 C-5.12469069 86.51037946 -5.12794213 80.65727954 -5.13394356 74.80413532 C-5.13756381 70.30278682 -5.13640355 65.80144916 -5.13381577 61.30010033 C-5.13314967 59.1427936 -5.13396382 56.98548588 -5.13629532 54.82818031 C-5.13884395 51.80510497 -5.13494933 48.7821031 -5.12939453 45.7590332 C-5.13141876 44.87096985 -5.13344299 43.98290649 -5.13552856 43.06793213 C-5.11926175 38.27227206 -4.80499249 33.72944948 -4 29 C-11.33230069 32.54528824 -18.44947352 36.30699765 -25.45361328 40.45898438 C-29.79141919 43 -29.79141919 43 -32 43 C-31.67 53.23 -31.34 63.46 -31 74 C-29.02 74.33 -27.04 74.66 -25 75 C-23.96915419 81.77412961 -23.85001776 88.40486549 -23.875 95.25 C-23.87113281 96.32507813 -23.86726563 97.40015625 -23.86328125 98.5078125 C-23.86457031 99.54164063 -23.86585938 100.57546875 -23.8671875 101.640625 C-23.86831543 102.57422852 -23.86944336 103.50783203 -23.87060547 104.46972656 C-23.98948896 106.79445968 -24.34283547 108.77464642 -25 111 C-26.98 111.33 -28.96 111.66 -31 112 C-31.03758423 112.98395752 -31.03758423 112.98395752 -31.07592773 113.98779297 C-31.1917326 116.95040183 -31.31452886 119.91268031 -31.4375 122.875 C-31.47681641 123.90753906 -31.51613281 124.94007813 -31.55664062 126.00390625 C-31.59853516 126.99003906 -31.64042969 127.97617187 -31.68359375 128.9921875 C-31.72025146 129.90339355 -31.75690918 130.81459961 -31.79467773 131.75341797 C-32 134 -32 134 -33 136 C-44.88 136 -56.76 136 -69 136 C-70.6447759 124.48656869 -70.67871382 112.89098949 -70.77903557 101.27507496 C-70.81702798 97.13102759 -70.89465462 92.99606332 -71.06640625 88.85522461 C-72.13331675 62.2111789 -72.13331675 62.2111789 -67.06887817 55.40457153 C-62.18892658 51.2198931 -56.66627114 48.97247769 -50.6270752 46.93264771 C-46.98168043 45.63848259 -43.92692305 43.84426079 -40.60546875 41.86328125 C-38.46683485 40.67844297 -36.32752637 39.49482138 -34.1875 38.3125 C-31.90346412 37.04720296 -29.61960939 35.78157886 -27.3359375 34.515625 C-26.25795898 33.91814453 -25.17998047 33.32066406 -24.06933594 32.70507812 C-17.69694992 29.16508895 -11.3464283 25.58626653 -5 22 C-5.01160156 21.34773438 -5.02320313 20.69546875 -5.03515625 20.0234375 C-5.04417969 19.14945313 -5.05320312 18.27546875 -5.0625 17.375 C-5.07410156 16.51648438 -5.08570313 15.65796875 -5.09765625 14.7734375 C-4.99214994 11.77705817 -4.51554541 8.95056093 -4 6 C-5.01477417 6.56376343 -5.01477417 6.56376343 -6.05004883 7.13891602 C-8.10936348 8.28297971 -10.16869094 9.42702038 -12.22802734 10.57104492 C-14.64904693 11.91604186 -17.0699292 13.26128556 -19.49072266 14.60668945 C-25.68041851 18.04646419 -31.87146535 21.48374125 -38.06640625 24.9140625 C-40.33603491 26.17169923 -42.60556757 27.42950921 -44.875 28.6875 C-45.98391602 29.30189941 -47.09283203 29.91629883 -48.23535156 30.54931641 C-56.45097173 35.11207099 -64.61724633 39.75670293 -72.73193359 44.49682617 C-73.53324707 44.96064697 -74.33456055 45.42446777 -75.16015625 45.90234375 C-76.20635132 46.51323853 -76.20635132 46.51323853 -77.27368164 47.13647461 C-79 48 -79 48 -81 48 C-80.99777939 49.07297333 -80.99555878 50.14594666 -80.99327087 51.25143433 C-80.97302966 61.34608519 -80.95802312 71.44073196 -80.94818783 81.53539848 C-80.9429615 86.72559325 -80.93586836 91.91577167 -80.92456055 97.10595703 C-80.91372282 102.11150397 -80.90772127 107.11703516 -80.90512276 112.12259293 C-80.90327011 114.03562798 -80.89965256 115.94866214 -80.89426994 117.86169052 C-80.88704779 120.53395219 -80.88600956 123.20614816 -80.88647461 125.87841797 C-80.88287933 126.67539093 -80.87928406 127.47236389 -80.87557983 128.29348755 C-80.88594784 133.77189568 -80.88594784 133.77189568 -82 136 C-89.26 136 -96.52 136 -104 136 C-104 134.35 -104 132.7 -104 131 C-98.06 131 -92.12 131 -86 131 C-86.08902588 128.44717285 -86.17805176 125.8943457 -86.26977539 123.26416016 C-86.55220209 114.80370299 -86.73951589 106.34302993 -86.88080692 97.87909889 C-86.96933251 92.7493715 -87.08921209 87.62449352 -87.2824707 82.49755859 C-87.4680359 77.54336977 -87.56898093 72.59382165 -87.61291313 67.63642502 C-87.64418611 65.7515893 -87.70527655 63.86699218 -87.79741096 61.98414993 C-88.36025851 49.9985077 -88.36025851 49.9985077 -86 45 C-81.88183168 40.6214576 -76.48694353 38.18371227 -71.02469444 35.87288284 C-68.35146408 34.72040429 -65.85515875 33.30954478 -63.3359375 31.85546875 C-61.68361798 30.96368403 -60.02997373 30.07434934 -58.375 29.1875 C-50.621079 24.99489316 -42.91770715 20.72325641 -35.25 16.375 C-34.29730225 15.83681641 -33.34460449 15.29863281 -32.36303711 14.74414062 C-27.81459438 12.17292513 -23.27789119 9.58454466 -18.76171875 6.95703125 C-17.15369629 6.03376628 -15.5456261 5.11058444 -13.9375 4.1875 C-13.21788086 3.76065918 -12.49826172 3.33381836 -11.75683594 2.89404297 C-11.08297852 2.51006348 -10.40912109 2.12608398 -9.71484375 1.73046875 C-9.13855225 1.39426514 -8.56226074 1.05806152 -7.96850586 0.71166992 C-5.1343394 -0.31296052 -3.00286034 -0.28537583 0 0 Z M0 9 C-0.02336695 24.1685477 -0.04099784 39.33709458 -0.05181217 54.50565624 C-0.05696705 61.54878021 -0.06399438 68.59189298 -0.07543945 75.63500977 C-0.08647623 82.43011392 -0.09228211 89.22520643 -0.09487724 96.02031898 C-0.09672702 98.6146901 -0.10033908 101.20906057 -0.10573006 103.80342674 C-0.11297321 107.43301146 -0.11398954 111.06254791 -0.11352539 114.69213867 C-0.11712067 115.7681987 -0.12071594 116.84425873 -0.12442017 117.95292664 C-0.1230455 118.94425598 -0.12167084 119.93558533 -0.12025452 120.95695496 C-0.12117631 121.81514422 -0.1220981 122.67333349 -0.12304783 123.5575285 C-0.03717674 126.44908058 -0.03717674 126.44908058 1 131 C14.2 131 27.4 131 41 131 C42.06557507 117.95505396 42.98448094 105.00458055 43.4375 91.9375 C43.47059013 90.9850729 43.50368027 90.0326458 43.53777313 89.05135727 C44.51770676 57.61137564 44.51770676 57.61137564 29.81181335 30.91401672 C21.6750656 22.66789693 12.26760025 14.50083174 2 9 C1.34 9 0.68 9 0 9 Z M-44 50 C-44.68876672 52.69584152 -44.68876672 52.69584152 -44.48828125 55.76171875 C-44.47216797 56.87998047 -44.45605469 57.99824219 -44.43945312 59.15039062 C-44.39755859 60.31763672 -44.35566406 61.48488281 -44.3125 62.6875 C-44.28994141 63.86634766 -44.26738281 65.04519531 -44.24414062 66.25976562 C-44.18513901 69.17444548 -44.10286341 72.08659161 -44 75 C-40.85938975 76.34513424 -40.85938975 76.34513424 -37 75 C-37 65.76 -37 56.52 -37 47 C-40.06748205 47 -41.60333593 48.1467387 -44 50 Z M-57.0625 56.9375 C-57.71283203 57.31068359 -58.36316406 57.68386719 -59.03320312 58.06835938 C-62.20160222 59.77938422 -62.20160222 59.77938422 -65 62 C-65.09425595 64.14743549 -65.11742648 66.29801026 -65.11352539 68.44750977 C-65.11367142 69.12065216 -65.11381744 69.79379456 -65.1139679 70.48733521 C-65.11326878 72.72205784 -65.10547652 74.9566981 -65.09765625 77.19140625 C-65.09579206 78.73697362 -65.09436816 80.28254157 -65.09336853 81.82810974 C-65.0895434 85.90357077 -65.07971317 89.97899637 -65.06866455 94.05444336 C-65.05845032 98.21011882 -65.05387089 102.36579999 -65.04882812 106.52148438 C-65.03809089 114.68100768 -65.02049414 122.84049536 -65 131 C-55.76 131 -46.52 131 -37 131 C-36.979375 127.885625 -36.95875 124.77125 -36.9375 121.5625 C-36.928396 120.57967041 -36.91929199 119.59684082 -36.90991211 118.58422852 C-36.90741455 117.81522217 -36.90491699 117.04621582 -36.90234375 116.25390625 C-36.89710693 115.46314697 -36.89187012 114.6723877 -36.88647461 113.85766602 C-36.79504091 111.98407311 -36.79504091 111.98407311 -38 111 C-39.63472882 110.91299658 -41.27314055 110.89298937 -42.91015625 110.90234375 C-44.39418945 110.90717773 -44.39418945 110.90717773 -45.90820312 110.91210938 C-46.94912109 110.92048828 -47.99003906 110.92886719 -49.0625 110.9375 C-50.62967773 110.94426758 -50.62967773 110.94426758 -52.22851562 110.95117188 C-54.8190666 110.96300087 -57.40950559 110.97948311 -60 111 C-60.02717692 108.93757383 -60.0464758 106.87504297 -60.0625 104.8125 C-60.07410156 103.66394531 -60.08570313 102.51539063 -60.09765625 101.33203125 C-60.0115732 98.39487744 -59.57374986 95.86396805 -59 93 C-59.08816364 90.8578346 -59.08816364 90.8578346 -59.4375 88.75 C-60.04332233 84.12866301 -60.0739439 79.65846585 -60 75 C-56.04 75 -52.08 75 -48 75 C-48 67.74 -48 60.48 -48 53 C-51.42157593 53 -54.16968951 55.25026756 -57.0625 56.9375 Z M-43 77 C-42 81 -42 81 -42 81 Z M-43 85 C-42 87 -42 87 -42 87 Z M-39 92 C-39 92.66 -39 93.32 -39 94 C-38.34 93.67 -37.68 93.34 -37 93 C-37.66 92.67 -38.32 92.34 -39 92 Z " fill="#F9FAFA" transform="translate(270,132)"/>
<path d="M0 0 C5.11027255 3.12869823 9.1284258 6.85105348 13.33203125 11.1015625 C14.00924728 11.77923676 14.68646332 12.45691101 15.38420105 13.15512085 C16.80595794 14.57988478 18.22529787 16.00706426 19.64233398 17.43652344 C21.81763469 19.63017802 24.00092933 21.81562756 26.18554688 24 C27.56818287 25.38754814 28.95036072 26.77555299 30.33203125 28.1640625 C30.9861348 28.81927887 31.64023834 29.47449524 32.31416321 30.14956665 C32.91536484 30.75714813 33.51656647 31.36472961 34.13598633 31.99072266 C34.93157707 32.7920311 34.93157707 32.7920311 35.74324036 33.60952759 C38.67808888 36.85662891 38.13381774 40.35019388 38.11352539 44.47900391 C38.11367142 45.24982803 38.11381744 46.02065216 38.1139679 46.81483459 C38.11326989 49.36877229 38.10548275 51.92263751 38.09765625 54.4765625 C38.09579167 56.24490316 38.09436796 58.01324433 38.09336853 59.78158569 C38.0895465 64.44064759 38.07971888 69.09967842 38.06866455 73.75872803 C38.05844369 78.51102274 38.05386946 83.26332247 38.04882812 88.015625 C38.03809634 97.34376367 38.02102367 106.67187925 38 116 C34.39973469 116.97835639 31.18364603 117.12918052 27.44140625 117.1328125 C25.53198242 117.13474609 25.53198242 117.13474609 23.58398438 117.13671875 C22.92358154 117.13462402 22.26317871 117.1325293 21.58276367 117.13037109 C19.5726768 117.12502706 17.56281426 117.13032271 15.55273438 117.13671875 C14.27849609 117.13542969 13.00425781 117.13414062 11.69140625 117.1328125 C9.94645874 117.13112061 9.94645874 117.13112061 8.16625977 117.12939453 C5.31169863 117.01273809 2.78344187 116.59476373 0 116 C-0.91175994 103.31100508 -1.14840305 90.68756314 -1.1328125 77.96875 C-1.13348828 75.99678536 -1.13446057 74.0248208 -1.13571167 72.05285645 C-1.137173 67.9551513 -1.13508316 63.85746818 -1.13037109 59.75976562 C-1.12464435 54.52716085 -1.12798128 49.29460705 -1.13394356 44.06200409 C-1.13756591 40.00410582 -1.13640341 35.94621956 -1.13381577 31.88832092 C-1.1331527 29.95874526 -1.13395304 28.02916847 -1.13629532 26.09959412 C-1.13885286 23.40425746 -1.13493917 20.70900249 -1.12939453 18.01367188 C-1.13141876 17.23117065 -1.13344299 16.44866943 -1.13552856 15.64245605 C-1.11554284 10.36165755 -0.65489468 5.2409451 0 0 Z " fill="#5C5C5C" transform="translate(272,145)"/>
<path d="M0 0 C2.39543532 0.01611279 4.7891846 0.00001457 7.18457031 -0.01904297 C18.18197382 -0.03166239 28.61278046 1.270317 39.39550781 3.39111328 C39.39550781 4.05111328 39.39550781 4.71111328 39.39550781 5.39111328 C40.46800781 5.45298828 41.54050781 5.51486328 42.64550781 5.57861328 C52.12131186 6.76727421 61.02675716 12.04010354 69.39550781 16.39111328 C69.39550781 17.05111328 69.39550781 17.71111328 69.39550781 18.39111328 C70.23855469 18.54773438 70.23855469 18.54773438 71.09863281 18.70751953 C73.81931252 19.51724563 75.78808588 20.75314666 78.14550781 22.32861328 C78.94472656 22.85326172 79.74394531 23.37791016 80.56738281 23.91845703 C81.17066406 24.40443359 81.77394531 24.89041016 82.39550781 25.39111328 C82.39550781 26.05111328 82.39550781 26.71111328 82.39550781 27.39111328 C83.71550781 27.72111328 85.03550781 28.05111328 86.39550781 28.39111328 C86.39550781 29.05111328 86.39550781 29.71111328 86.39550781 30.39111328 C87.19988281 30.73142578 87.19988281 30.73142578 88.02050781 31.07861328 C91.22010943 32.84681417 93.68588004 34.92781531 96.39550781 37.39111328 C96.39550781 38.05111328 96.39550781 38.71111328 96.39550781 39.39111328 C97.05550781 39.39111328 97.71550781 39.39111328 98.39550781 39.39111328 C100.21390391 41.45678713 101.9083812 43.52550232 103.58300781 45.70361328 C104.07260986 46.33428711 104.56221191 46.96496094 105.06665039 47.61474609 C116.39550781 62.3871441 116.39550781 62.3871441 116.39550781 66.39111328 C117.05550781 66.39111328 117.71550781 66.39111328 118.39550781 66.39111328 C126.86638958 83.7953277 133.48641295 101.20346217 133.59863281 120.78955078 C133.60433289 121.5827774 133.61003296 122.37600403 133.61590576 123.19326782 C133.6253094 124.86906625 133.63187119 126.54488278 133.63574219 128.22070312 C133.64534805 130.72447228 133.67637332 133.22738342 133.70800781 135.73095703 C133.91778853 167.99694434 121.37799961 198.91052418 98.73144531 222.12158203 C97.96058594 222.87052734 97.18972656 223.61947266 96.39550781 224.39111328 C95.52925781 225.25736328 94.66300781 226.12361328 93.77050781 227.01611328 C92.98675781 227.79986328 92.20300781 228.58361328 91.39550781 229.39111328 C90.83863281 229.98923828 90.28175781 230.58736328 89.70800781 231.20361328 C88.39550781 232.39111328 88.39550781 232.39111328 86.39550781 232.39111328 C86.06550781 233.38111328 85.73550781 234.37111328 85.39550781 235.39111328 C83.15722656 236.87158203 83.15722656 236.87158203 80.39550781 238.39111328 C78.66309096 239.49017344 76.9340465 240.59456331 75.20800781 241.70361328 C74.23863281 242.31720703 73.26925781 242.93080078 72.27050781 243.56298828 C70.51018051 244.68232684 68.75797614 245.8147363 67.02050781 246.96923828 C51.16174722 257.14884812 30.76163001 262.48392889 12.04785156 262.59423828 C11.27349258 262.59993835 10.49913361 262.60563843 9.7013092 262.61151123 C8.07017352 262.62089776 6.43901941 262.62746972 4.80786133 262.63134766 C2.36341525 262.6409933 -0.08016661 262.67205233 -2.52441406 262.70361328 C-36.07676819 262.92925889 -67.13808324 248.46742811 -91.00805664 225.28076172 C-95.46101214 220.87769751 -99.17188326 216.67261672 -102.60449219 211.39111328 C-103.5956932 210.38239104 -104.59503975 209.38157064 -105.60449219 208.39111328 C-113.34187162 197.57027323 -123.60449219 182.10104758 -123.60449219 168.39111328 C-124.26449219 168.39111328 -124.92449219 168.39111328 -125.60449219 168.39111328 C-127.88716415 156.78536427 -129.08972417 145.61661839 -128.99560547 133.78662109 C-128.97949268 131.39118578 -128.9955909 128.99743649 -129.01464844 126.60205078 C-129.02639595 118.52635748 -128.56831157 110.68085169 -127.26855469 102.70361328 C-127.15232758 101.9855249 -127.03610046 101.26743652 -126.91635132 100.52758789 C-125.57116512 93.06226874 -122.64370035 86.32050788 -119.60449219 79.39111328 C-119.32992187 78.72595703 -119.05535156 78.06080078 -118.77246094 77.37548828 C-114.64431541 67.60847162 -109.16868894 58.69581675 -102.60449219 50.39111328 C-101.99089844 49.56998047 -101.37730469 48.74884766 -100.74511719 47.90283203 C-100.12121094 47.07396484 -99.49730469 46.24509766 -98.85449219 45.39111328 C-98.28214844 44.62798828 -97.70980469 43.86486328 -97.12011719 43.07861328 C-96.61996094 42.52173828 -96.11980469 41.96486328 -95.60449219 41.39111328 C-94.94449219 41.39111328 -94.28449219 41.39111328 -93.60449219 41.39111328 C-93.60449219 40.73111328 -93.60449219 40.07111328 -93.60449219 39.39111328 C-92.94449219 39.39111328 -92.28449219 39.39111328 -91.60449219 39.39111328 C-91.60449219 38.73111328 -91.60449219 38.07111328 -91.60449219 37.39111328 C-90.94449219 37.39111328 -90.28449219 37.39111328 -89.60449219 37.39111328 C-89.60449219 36.73111328 -89.60449219 36.07111328 -89.60449219 35.39111328 C-87.95996094 33.69970703 -87.95996094 33.69970703 -85.79199219 31.82861328 C-85.08429688 31.20857422 -84.37660156 30.58853516 -83.64746094 29.94970703 C-81.60449219 28.39111328 -81.60449219 28.39111328 -78.60449219 27.39111328 C-78.60449219 26.73111328 -78.60449219 26.07111328 -78.60449219 25.39111328 C-76.62792969 24.02392578 -76.62792969 24.02392578 -73.97949219 22.51611328 C-71.06356027 20.82643121 -68.22283908 19.13667788 -65.41699219 17.26611328 C-60.29512426 13.85153467 -55.8988337 11.00519538 -49.60449219 10.39111328 C-49.60449219 9.73111328 -49.60449219 9.07111328 -49.60449219 8.39111328 C-47.8563236 7.88474721 -46.10586956 7.38626709 -44.35449219 6.89111328 C-43.37996094 6.61267578 -42.40542969 6.33423828 -41.40136719 6.04736328 C-38.60449219 5.39111328 -38.60449219 5.39111328 -34.60449219 5.39111328 C-34.60449219 4.73111328 -34.60449219 4.07111328 -34.60449219 3.39111328 C-22.99874317 1.10844132 -11.8299973 -0.09411871 0 0 Z M-60.60449219 19.39111328 C-61.53003906 19.89642578 -62.45558594 20.40173828 -63.40917969 20.92236328 C-70.14605484 24.79660458 -76.7076525 29.32509981 -82.60449219 34.39111328 C-82.60449219 35.05111328 -82.60449219 35.71111328 -82.60449219 36.39111328 C-83.14074219 36.59736328 -83.67699219 36.80361328 -84.22949219 37.01611328 C-87.52427227 38.92361754 -90.19812847 41.43930712 -92.60449219 44.39111328 C-92.60449219 45.05111328 -92.60449219 45.71111328 -92.60449219 46.39111328 C-93.26449219 46.39111328 -93.92449219 46.39111328 -94.60449219 46.39111328 C-96.41010562 48.5614971 -98.08147209 50.7296735 -99.72949219 53.01611328 C-100.46546631 54.03185425 -100.46546631 54.03185425 -101.21630859 55.06811523 C-117.33057097 77.66853898 -126.25963677 103.39457903 -125.91699219 131.20361328 C-125.91910628 132.54411036 -125.92235955 133.88460613 -125.92675781 135.22509766 C-125.88677957 142.54838458 -125.33011522 149.28161185 -123.60449219 156.39111328 C-123.26998047 158.18162109 -123.26998047 158.18162109 -122.92871094 160.00830078 C-121.36862431 167.99058449 -119.05526382 175.03789833 -115.60449219 182.39111328 C-115.33540039 182.99149414 -115.06630859 183.591875 -114.7890625 184.21044922 C-104.38474551 207.35858499 -87.20119712 227.02681568 -65.60449219 240.39111328 C-64.67894531 240.96732422 -63.75339844 241.54353516 -62.79980469 242.13720703 C-51.62372764 248.88639642 -40.22932013 253.16246876 -27.60449219 256.39111328 C-26.03634766 256.84357422 -26.03634766 256.84357422 -24.43652344 257.30517578 C-1.99841365 262.93443193 23.93935496 260.88200331 45.39550781 252.39111328 C46.56855469 251.94509766 47.74160156 251.49908203 48.95019531 251.03955078 C50.04589844 250.61931641 51.14160156 250.19908203 52.27050781 249.76611328 C53.38167969 249.34072266 54.49285156 248.91533203 55.63769531 248.47705078 C58.30043654 247.47548635 58.30043654 247.47548635 60.39550781 246.39111328 C60.39550781 245.73111328 60.39550781 245.07111328 60.39550781 244.39111328 C61.57113281 244.17455078 61.57113281 244.17455078 62.77050781 243.95361328 C65.35971799 243.51312403 65.35971799 243.51312403 67.39550781 242.39111328 C67.39550781 241.73111328 67.39550781 241.07111328 67.39550781 240.39111328 C67.95753906 240.28669922 68.51957031 240.18228516 69.09863281 240.07470703 C71.81931252 239.26498093 73.78808588 238.0290799 76.14550781 236.45361328 C76.94472656 235.92896484 77.74394531 235.40431641 78.56738281 234.86376953 C79.17066406 234.37779297 79.77394531 233.89181641 80.39550781 233.39111328 C80.39550781 232.73111328 80.39550781 232.07111328 80.39550781 231.39111328 C82.87050781 230.40111328 82.87050781 230.40111328 85.39550781 229.39111328 C85.39550781 228.73111328 85.39550781 228.07111328 85.39550781 227.39111328 C85.93046875 227.17712891 86.46542969 226.96314453 87.01660156 226.74267578 C98.63765506 220.14023816 110.39524221 204.7102034 115.39550781 192.39111328 C115.39550781 191.40111328 115.39550781 190.41111328 115.39550781 189.39111328 C116.05550781 189.39111328 116.71550781 189.39111328 117.39550781 189.39111328 C122.61623698 176.80915598 127.2406636 164.57855404 129.00097656 150.97314453 C129.39550781 148.39111328 129.39550781 148.39111328 130.39550781 146.39111328 C133.14049608 109.16003821 123.07077382 76.33819965 99.39550781 47.39111328 C98.3475 46.00666016 98.3475 46.00666016 97.27832031 44.59423828 C96.65699219 43.86720703 96.03566406 43.14017578 95.39550781 42.39111328 C94.73550781 42.39111328 94.07550781 42.39111328 93.39550781 42.39111328 C93.39550781 41.73111328 93.39550781 41.07111328 93.39550781 40.39111328 C92.73550781 40.39111328 92.07550781 40.39111328 91.39550781 40.39111328 C91.39550781 39.73111328 91.39550781 39.07111328 91.39550781 38.39111328 C88.92786764 35.84278733 86.12836884 33.64869413 83.39550781 31.39111328 C82.68652344 30.79556641 81.97753906 30.20001953 81.24707031 29.58642578 C75.66242247 25.05015948 69.78736756 21.66194776 63.39550781 18.39111328 C62.32300781 17.81232422 61.25050781 17.23353516 60.14550781 16.63720703 C51.46192056 12.06845601 42.85942249 8.89398617 33.39550781 6.39111328 C31.67267578 5.90964844 31.67267578 5.90964844 29.91503906 5.41845703 C20.6153248 3.2380442 11.33818647 3.07685784 1.83300781 3.01611328 C0.54322021 3.00217529 -0.74656738 2.9882373 -2.07543945 2.97387695 C-23.04321084 3.07637955 -42.36015681 9.40041244 -60.60449219 19.39111328 Z " fill="#EEEFEF" transform="translate(247.6044921875,118.60888671875)"/>
<path d="M0 0 C0.99 0.33 1.98 0.66 3 1 C2.01 1 1.02 1 0 1 C0 0.67 0 0.34 0 0 Z M0 1 C0 3 0 5 0 7 C-0.99 7.495 -0.99 7.495 -2 8 C-2 16.25 -2 24.5 -2 33 C-0.02 33 1.96 33 4 33 C5 34 5 34 5.09765625 37.37890625 C5.09098369 38.77347077 5.07902532 40.16801743 5.0625 41.5625 C5.05798828 42.27341797 5.05347656 42.98433594 5.04882812 43.71679688 C5.03700864 45.47790013 5.01907263 47.23896036 5 49 C4.01 49.33 3.02 49.66 2 50 C2 50.66 2 51.32 2 52 C2.99 52.33 3.98 52.66 5 53 C5 58.28 5 63.56 5 69 C-2.92 69 -10.84 69 -19 69 C-19.88106582 63.71360507 -20.6835609 58.88614603 -19.4375 53.625 C-19.00782274 51.04693646 -19.1494481 49.31479748 -19.5 46.75 C-20.13348095 41.97884603 -19.67934082 37.75538575 -19 33 C-15.04 33 -11.08 33 -7 33 C-7 25.74 -7 18.48 -7 11 C-16.43316923 13.50456505 -16.43316923 13.50456505 -23 20 C-25.86402573 30.41559625 -24.87772126 41.90204345 -24.56219482 52.60375977 C-24.45842435 56.7061048 -24.44610616 60.80865261 -24.42578125 64.91210938 C-24.3726654 72.94484544 -24.21026171 80.96983926 -24 89 C-14.76 89 -5.52 89 4 89 C4 82.73 4 76.46 4 70 C4.66 70 5.32 70 6 70 C6.33 57.79 6.66 45.58 7 33 C9.97 33 12.94 33 16 33 C17.03084581 39.77412961 17.14998224 46.40486549 17.125 53.25 C17.13080078 54.86261719 17.13080078 54.86261719 17.13671875 56.5078125 C17.13542969 57.54164063 17.13414062 58.57546875 17.1328125 59.640625 C17.13168457 60.57422852 17.13055664 61.50783203 17.12939453 62.46972656 C17.01051104 64.79445968 16.65716453 66.77464642 16 69 C13.03 69.495 13.03 69.495 10 70 C9.96241577 70.98395752 9.96241577 70.98395752 9.92407227 71.98779297 C9.8082674 74.95040183 9.68547114 77.91268031 9.5625 80.875 C9.52318359 81.90753906 9.48386719 82.94007813 9.44335938 84.00390625 C9.38051758 85.48310547 9.38051758 85.48310547 9.31640625 86.9921875 C9.27974854 87.90339355 9.24309082 88.81459961 9.20532227 89.75341797 C9 92 9 92 8 94 C-3.88 94 -15.76 94 -28 94 C-29.6447759 82.48656869 -29.67871382 70.89098949 -29.77903557 59.27507496 C-29.81702798 55.13102759 -29.89465462 50.99606332 -30.06640625 46.85522461 C-31.14137562 20.04727488 -31.14137562 20.04727488 -25.92687988 13.32904053 C-20.95286247 9.17008321 -15.47369932 6.7758943 -9.34332275 4.79550171 C-6.06337591 3.68203865 -3.43695368 1 0 1 Z M-2 35 C-1 39 -1 39 -1 39 Z M-2 43 C-1 45 -1 45 -1 45 Z " fill="#FAFAFA" transform="translate(229,174)"/>
<path d="M0 0 C66 0 132 0 200 0 C200 1.65 200 3.3 200 5 C134 5 68 5 0 5 C0 3.35 0 1.7 0 0 Z " fill="#F7F7F7" transform="translate(150,269)"/>
<path d="M0 0 C2.97 0 5.94 0 9 0 C10.03084581 6.77412961 10.14998224 13.40486549 10.125 20.25 C10.13080078 21.86261719 10.13080078 21.86261719 10.13671875 23.5078125 C10.13542969 24.54164063 10.13414062 25.57546875 10.1328125 26.640625 C10.13168457 27.57422852 10.13055664 28.50783203 10.12939453 29.46972656 C10.01051104 31.79445968 9.65716453 33.77464642 9 36 C6.03 36.495 6.03 36.495 3 37 C2.96241577 37.98395752 2.96241577 37.98395752 2.92407227 38.98779297 C2.8082674 41.95040183 2.68547114 44.91268031 2.5625 47.875 C2.52318359 48.90753906 2.48386719 49.94007813 2.44335938 51.00390625 C2.38051758 52.48310547 2.38051758 52.48310547 2.31640625 53.9921875 C2.27974854 54.90339355 2.24309082 55.81459961 2.20532227 56.75341797 C2 59 2 59 1 61 C-10.55 61 -22.1 61 -34 61 C-33.34 59.35 -32.68 57.7 -32 56 C-22.43 56 -12.86 56 -3 56 C-3 49.73 -3 43.46 -3 37 C-2.34 37 -1.68 37 -1 37 C-0.67 24.79 -0.34 12.58 0 0 Z " fill="#F3F3F3" transform="translate(236,207)"/>
<path d="M0 0 C0.33 0 0.66 0 1 0 C1.495 12.375 1.495 12.375 2 25 C2.66 25.33 3.32 25.66 4 26 C4.33 35.9 4.66 45.8 5 56 C10.61 56 16.22 56 22 56 C22 57.65 22 59.3 22 61 C-0.44 61 -22.88 61 -46 61 C-46 60.34 -46 59.68 -46 59 C-43.03 58.505 -43.03 58.505 -40 58 C-40.33 57.34 -40.66 56.68 -41 56 C-27.8 56 -14.6 56 -1 56 C-1.01160156 52.6278125 -1.02320313 49.255625 -1.03515625 45.78125 C-1.04296563 42.49804783 -1.04903169 39.21484672 -1.05493164 35.93164062 C-1.05994564 33.65819838 -1.06675848 31.38475933 -1.07543945 29.11132812 C-1.08763383 25.83462736 -1.09325778 22.5579694 -1.09765625 19.28125 C-1.10281754 18.27259888 -1.10797882 17.26394775 -1.11329651 16.22473145 C-1.11372955 10.71853538 -0.81646966 5.44689793 0 0 Z " fill="#F4F4F4" transform="translate(312,207)"/>
<path d="M0 0 C4.29 0 8.58 0 13 0 C13 5.61 13 11.22 13 17 C11.35 17.66 9.7 18.32 8 19 C7.67 21.31 7.34 23.62 7 26 C7.99 26.33 8.98 26.66 10 27 C10.66 27.99 11.32 28.98 12 30 C14.55183404 31.20450304 14.55183404 31.20450304 17 32 C17 31.34 17 30.68 17 30 C17.66 30 18.32 30 19 30 C19.28875 29.360625 19.5775 28.72125 19.875 28.0625 C21 26 21 26 23 25 C23.05399736 26.45792884 23.09279177 27.91642712 23.125 29.375 C23.14820313 30.18710938 23.17140625 30.99921875 23.1953125 31.8359375 C23 34 23 34 21 36 C18.84521484 36.22705078 18.84521484 36.22705078 16.2109375 36.1953125 C15.26992187 36.18886719 14.32890625 36.18242187 13.359375 36.17578125 C11.88210937 36.15064453 11.88210937 36.15064453 10.375 36.125 C9.38242188 36.11597656 8.38984375 36.10695312 7.3671875 36.09765625 C4.91121866 36.07404116 2.45572832 36.04110799 0 36 C-0.91858024 30.81658293 -1.66828031 25.82162799 -0.4375 20.625 C-0.00782274 18.04693646 -0.1494481 16.31479748 -0.5 13.75 C-1.13348095 8.97884603 -0.67934082 4.75538575 0 0 Z " fill="#5D5D5D" transform="translate(210,207)"/>
<path d="M0 0 C0.99 0.495 0.99 0.495 2 1 C1.47206073 5.30002711 0.077556 7.5779999 -2.6875 10.875 C-3.41066406 11.74253906 -4.13382812 12.61007812 -4.87890625 13.50390625 C-5.57886719 14.32761719 -6.27882813 15.15132813 -7 16 C-7.54527344 16.66902344 -8.09054687 17.33804687 -8.65234375 18.02734375 C-11.79333938 21.83486366 -15.04509256 25.03381942 -19 28 C-19.66 28 -20.32 28 -21 28 C-21.495 29.485 -21.495 29.485 -22 31 C-24.23828125 32.48046875 -24.23828125 32.48046875 -27 34 C-28.73241686 35.09906016 -30.46146131 36.20345003 -32.1875 37.3125 C-33.156875 37.92609375 -34.12625 38.5396875 -35.125 39.171875 C-36.8853273 40.29121356 -38.63753167 41.42362302 -40.375 42.578125 C-52.05579552 50.07593294 -66.96274729 55.75877042 -81 55 C-78.71403683 52.36347379 -76.91581186 51.44900773 -73.5625 50.5625 C-67.63504268 48.91214381 -61.82902925 46.96641951 -56 45 C-54.25024765 44.41592425 -52.50027457 43.83250896 -50.75 43.25 C-49.5125 42.8375 -48.275 42.425 -47 42 C-47 41.34 -47 40.68 -47 40 C-44.69 39.34 -42.38 38.68 -40 38 C-40 37.34 -40 36.68 -40 36 C-38.948125 35.401875 -37.89625 34.80375 -36.8125 34.1875 C-35.5416485 33.458365 -34.27081464 32.72919925 -33 32 C-32.0925 31.484375 -31.185 30.96875 -30.25 30.4375 C-28.14836908 29.09479136 -26.74012229 27.76165846 -25 26 C-23.83953789 24.99280647 -22.67225832 23.99343925 -21.5 23 C-13.55367113 16.06528865 -5.94633672 8.7564199 0 0 Z " fill="#EAEAEB" transform="translate(355,323)"/>
<path d="M0 0 C0.33 0 0.66 0 1 0 C0.979375 0.9075 0.95875 1.815 0.9375 2.75 C0.84079587 5.80605143 0.84079587 5.80605143 1.58984375 7.83984375 C2.15277326 10.80460581 1.43468998 12.9191583 0.625 15.8125 C-1.81709786 24.63372264 -2.18637156 33.13089627 -2.18530273 42.22338867 C-2.18748362 44.29692294 -2.20566823 46.36991923 -2.22460938 48.44335938 C-2.2563832 55.87954848 -1.79805952 62.7772584 0 70 C0.2578125 71.28648437 0.515625 72.57296875 0.78125 73.8984375 C1.13703125 75.61933594 1.13703125 75.61933594 1.5 77.375 C1.7371875 78.53773438 1.974375 79.70046875 2.21875 80.8984375 C2.85646264 83.93239351 2.85646264 83.93239351 4.15625 86.2265625 C5 88 5 88 4 91 C3.34 90.01 2.68 89.02 2 88 C2.33 89.98 2.66 91.96 3 94 C1 93 1 93 -0.125 89.6875 C-1 86 -1 86 -1 82 C-1.66 82 -2.32 82 -3 82 C-5.28267196 70.39425099 -6.48523199 59.22550511 -6.39111328 47.39550781 C-6.37500049 45.0000725 -6.39109871 42.60632321 -6.41015625 40.2109375 C-6.42190376 32.1352442 -5.96381938 24.28973841 -4.6640625 16.3125 C-4.54783539 15.59441162 -4.43160828 14.87632324 -4.31185913 14.13647461 C-3.41554608 9.16224651 -1.88122889 4.69024119 0 0 Z " fill="#F8F9F9" transform="translate(125,205)"/>
<path d="M0 0 C4.95315883 3.04114919 8.83429549 6.59045124 12.875 10.75 C13.76445312 11.65298828 13.76445312 11.65298828 14.671875 12.57421875 C16.11923124 14.04491945 17.5602763 15.5218267 19 17 C16 17 16 17 14.1328125 15.28515625 C12.7979058 13.80740934 11.46456236 12.32824874 10.1328125 10.84765625 C7.69161662 8.73284736 6.12858613 8.50830649 3 8 C2.84593694 20.6393775 2.69775772 33.27880909 2.5570364 45.91834259 C2.49150634 51.78772247 2.42396936 57.65706481 2.35180664 63.52636719 C2.2822072 69.19324633 2.2179308 74.86016339 2.15730476 80.52714539 C2.13327659 82.68643882 2.10734831 84.845712 2.07946587 87.00495911 C2.04066493 90.03517493 2.00869289 93.06539316 1.97827148 96.09570312 C1.96532547 96.98331329 1.95237946 97.87092346 1.93904114 98.78543091 C1.89550252 103.95344644 2.07988481 108.90532665 3 114 C4.92064793 115.5899433 4.92064793 115.5899433 7 116 C4.3333581 117.33332095 2.83319697 116.67102033 0 116 C-0.91175994 103.31100508 -1.14840305 90.68756314 -1.1328125 77.96875 C-1.13348828 75.99678536 -1.13446057 74.0248208 -1.13571167 72.05285645 C-1.137173 67.9551513 -1.13508316 63.85746818 -1.13037109 59.75976562 C-1.12464435 54.52716085 -1.12798128 49.29460705 -1.13394356 44.06200409 C-1.13756591 40.00410582 -1.13640341 35.94621956 -1.13381577 31.88832092 C-1.1331527 29.95874526 -1.13395304 28.02916847 -1.13629532 26.09959412 C-1.13885286 23.40425746 -1.13493917 20.70900249 -1.12939453 18.01367188 C-1.13141876 17.23117065 -1.13344299 16.44866943 -1.13552856 15.64245605 C-1.11554284 10.36165755 -0.65489468 5.2409451 0 0 Z " fill="#949595" transform="translate(272,145)"/>
<path d="M0 0 C3.125 -0.1875 3.125 -0.1875 6 0 C7.03084581 6.77412961 7.14998224 13.40486549 7.125 20.25 C7.12886719 21.32507813 7.13273438 22.40015625 7.13671875 23.5078125 C7.13542969 24.54164063 7.13414062 25.57546875 7.1328125 26.640625 C7.13168457 27.57422852 7.13055664 28.50783203 7.12939453 29.46972656 C7.01051104 31.79445968 6.65716453 33.77464642 6 36 C2.04 35.505 2.04 35.505 -2 35 C-2.05398987 32.72942623 -2.09278742 30.45848712 -2.125 28.1875 C-2.14820313 26.92292969 -2.17140625 25.65835938 -2.1953125 24.35546875 C-2 21 -2 21 0 18 C-0.28875 17.319375 -0.5775 16.63875 -0.875 15.9375 C-2.49303878 11.71262097 -2.51644579 7.48092671 -2 3 C-1.34 2.01 -0.68 1.02 0 0 Z " fill="#5C5C5C" transform="translate(239,207)"/>
<path d="M0 0 C8.01485438 0.48383635 8.01485438 0.48383635 10.9140625 3.3046875 C11.76132543 6.69373922 11.03717157 7.94420118 9.6015625 11.0546875 C9.99927513 14.23638856 11.37225269 17.10434395 12.6015625 20.0546875 C10.3515625 20.3671875 10.3515625 20.3671875 7.6015625 20.0546875 C3.6015625 15.94657939 3.6015625 15.94657939 3.6015625 13.0546875 C2.9415625 13.0546875 2.2815625 13.0546875 1.6015625 13.0546875 C1.6015625 15.3646875 1.6015625 17.6746875 1.6015625 20.0546875 C-0.0484375 20.0546875 -1.6984375 20.0546875 -3.3984375 20.0546875 C-3.42732264 16.90887327 -3.44519673 13.76309281 -3.4609375 10.6171875 C-3.46931641 9.71935547 -3.47769531 8.82152344 -3.48632812 7.89648438 C-3.48955078 7.04248047 -3.49277344 6.18847656 -3.49609375 5.30859375 C-3.50394897 4.12245483 -3.50394897 4.12245483 -3.51196289 2.91235352 C-3.33687241 0.04727076 -2.87171902 0.06547894 0 0 Z M1.6015625 5.0546875 C1.6015625 6.3746875 1.6015625 7.6946875 1.6015625 9.0546875 C2.9215625 8.7246875 4.2415625 8.3946875 5.6015625 8.0546875 C5.6015625 7.0646875 5.6015625 6.0746875 5.6015625 5.0546875 C4.2815625 5.0546875 2.9615625 5.0546875 1.6015625 5.0546875 Z " fill="#FDFDFD" transform="translate(275.3984375,285.9453125)"/>
<path d="M0 0 C1.65 0 3.3 0 5 0 C12 15.35025381 12 15.35025381 12 20 C10.35 20 8.7 20 7 20 C6.67 18.68 6.34 17.36 6 16 C4.02 16.33 2.04 16.66 0 17 C-0.33 17.99 -0.66 18.98 -1 20 C-2.98 20 -4.96 20 -7 20 C-5.07443364 13.14381674 -2.7527517 6.56747868 0 0 Z M2 7 C1.67 8.65 1.34 10.3 1 12 C1.99 12 2.98 12 4 12 C3.67 10.35 3.34 8.7 3 7 C2.67 7 2.34 7 2 7 Z " fill="#FCFCFC" transform="translate(171,286)"/>
<path d="M0 0 C1.34386088 0.28797019 2.6757713 0.63215869 4 1 C5.65 1.33 7.3 1.66 9 2 C9 6.95 9 11.9 9 17 C8.01 17.33 7.02 17.66 6 18 C6 18.66 6 19.32 6 20 C6.99 20.33 7.98 20.66 9 21 C9 26.28 9 31.56 9 37 C8.01 36.67 7.02 36.34 6 36 C6.495 35.505 6.495 35.505 7 35 C7.37404967 28.87608568 7.37404967 28.87608568 6 23 C5.01 22.67 4.02 22.34 3 22 C2.67 21.01 2.34 20.02 2 19 C1.01 18.67 0.02 18.34 -1 18 C-1.02684312 15.18743719 -1.04676188 12.37512759 -1.0625 9.5625 C-1.07087891 8.76005859 -1.07925781 7.95761719 -1.08789062 7.13085938 C-1.0965143 5.08704779 -1.0522815 3.04316098 -1 1 C-0.67 0.67 -0.34 0.34 0 0 Z M2 3 C3 7 3 7 3 7 Z M2 11 C3 13 3 13 3 13 Z " fill="#C0C1C0" transform="translate(225,206)"/>
<path d="M0 0 C0.99 0 1.98 0 3 0 C3.04254356 1.99954746 3.04080783 4.00041636 3 6 C2.67 6.33 2.34 6.66 2 7 C1.92674832 9.86267567 1.90761795 12.700719 1.9375 15.5625 C1.94201172 16.36880859 1.94652344 17.17511719 1.95117188 18.00585938 C1.96299482 20.00393756 1.98093086 22.00197783 2 24 C2.99 24 3.98 24 5 24 C5.12375 24.639375 5.2475 25.27875 5.375 25.9375 C5.58125 26.618125 5.7875 27.29875 6 28 C6.66 28.33 7.32 28.66 8 29 C8.25524262 32.0629114 8.27835451 33.57641706 6.5625 36.1875 C6.046875 36.785625 5.53125 37.38375 5 38 C4.67 38.66 4.34 39.32 4 40 C1.0625 38.6875 1.0625 38.6875 -2 37 C-2.495 35.515 -2.495 35.515 -3 34 C-5.01508358 33.26676204 -5.01508358 33.26676204 -7 33 C-6.25 26.25 -6.25 26.25 -4 24 C-2.68 24 -1.36 24 0 24 C-0.05329468 22.9627478 -0.05329468 22.9627478 -0.10766602 21.90454102 C-0.26465181 18.79077094 -0.41368123 15.67667062 -0.5625 12.5625 C-0.61857422 11.47388672 -0.67464844 10.38527344 -0.73242188 9.26367188 C-0.78076172 8.22919922 -0.82910156 7.19472656 -0.87890625 6.12890625 C-0.9260376 5.17056885 -0.97316895 4.21223145 -1.02172852 3.22485352 C-1 1 -1 1 0 0 Z " fill="#DEDEDE" transform="translate(223,200)"/>
<path d="M0 0 C1.51400391 0.01740234 1.51400391 0.01740234 3.05859375 0.03515625 C4.07050781 0.04417969 5.08242188 0.05320312 6.125 0.0625 C7.29869141 0.07990234 7.29869141 0.07990234 8.49609375 0.09765625 C8.49609375 1.74765625 8.49609375 3.39765625 8.49609375 5.09765625 C6.18609375 5.09765625 3.87609375 5.09765625 1.49609375 5.09765625 C1.49609375 6.08765625 1.49609375 7.07765625 1.49609375 8.09765625 C3.80609375 8.09765625 6.11609375 8.09765625 8.49609375 8.09765625 C8.49609375 9.41765625 8.49609375 10.73765625 8.49609375 12.09765625 C6.18609375 12.09765625 3.87609375 12.09765625 1.49609375 12.09765625 C1.49609375 13.41765625 1.49609375 14.73765625 1.49609375 16.09765625 C3.80609375 16.09765625 6.11609375 16.09765625 8.49609375 16.09765625 C8.49609375 17.41765625 8.49609375 18.73765625 8.49609375 20.09765625 C4.53609375 20.09765625 0.57609375 20.09765625 -3.50390625 20.09765625 C-3.53074322 16.95176681 -3.55066527 13.80610354 -3.56640625 10.66015625 C-3.57478516 9.76232422 -3.58316406 8.86449219 -3.59179688 7.93945312 C-3.59501953 7.08544922 -3.59824219 6.23144531 -3.6015625 5.3515625 C-3.60941772 4.16542358 -3.60941772 4.16542358 -3.61743164 2.95532227 C-3.4390318 0.03608708 -2.92971854 0.11426359 0 0 Z " fill="#FDFDFD" transform="translate(257.50390625,285.90234375)"/>
<path d="M0 0 C1.51400391 0.01740234 1.51400391 0.01740234 3.05859375 0.03515625 C4.07050781 0.04417969 5.08242187 0.05320312 6.125 0.0625 C7.29869141 0.07990234 7.29869141 0.07990234 8.49609375 0.09765625 C8.49609375 1.74765625 8.49609375 3.39765625 8.49609375 5.09765625 C6.18609375 5.09765625 3.87609375 5.09765625 1.49609375 5.09765625 C1.49609375 6.08765625 1.49609375 7.07765625 1.49609375 8.09765625 C3.80609375 8.09765625 6.11609375 8.09765625 8.49609375 8.09765625 C8.49609375 9.41765625 8.49609375 10.73765625 8.49609375 12.09765625 C6.18609375 12.09765625 3.87609375 12.09765625 1.49609375 12.09765625 C1.49609375 13.41765625 1.49609375 14.73765625 1.49609375 16.09765625 C3.80609375 16.09765625 6.11609375 16.09765625 8.49609375 16.09765625 C8.49609375 17.41765625 8.49609375 18.73765625 8.49609375 20.09765625 C4.53609375 20.09765625 0.57609375 20.09765625 -3.50390625 20.09765625 C-3.53074322 16.95176681 -3.55066527 13.80610354 -3.56640625 10.66015625 C-3.57478516 9.76232422 -3.58316406 8.86449219 -3.59179688 7.93945312 C-3.59501953 7.08544922 -3.59824219 6.23144531 -3.6015625 5.3515625 C-3.60941772 4.16542358 -3.60941772 4.16542358 -3.61743164 2.95532227 C-3.4390318 0.03608708 -2.92971854 0.11426359 0 0 Z " fill="#FDFDFD" transform="translate(209.50390625,285.90234375)"/>
<path d="M0 0 C2.375 2 2.375 2 4 4 C3.34 5.98 2.68 7.96 2 10 C2.66 10.66 3.32 11.32 4 12 C3.875 15.5 3.875 15.5 3 19 C-0.01153682 21.12815268 -2.17563835 21.15064142 -5.75 20.625 C-6.54921875 20.51414062 -7.3484375 20.40328125 -8.171875 20.2890625 C-9.07679688 20.14597656 -9.07679688 20.14597656 -10 20 C-10 18.35 -10 16.7 -10 15 C-9.071875 15.226875 -8.14375 15.45375 -7.1875 15.6875 C-4.03173152 16.36319983 -4.03173152 16.36319983 -2.125 14.5625 C-1.75375 14.046875 -1.3825 13.53125 -1 13 C-3.97 12.505 -3.97 12.505 -7 12 C-7 10.68 -7 9.36 -7 8 C-5.35 7.67 -3.7 7.34 -2 7 C-2 6.67 -2 6.34 -2 6 C-3.98 6 -5.96 6 -8 6 C-8.66 4.68 -9.32 3.36 -10 2 C-6.59575912 -0.09491746 -3.96585158 -0.49573145 0 0 Z " fill="#FCFCFC" transform="translate(330,286)"/>
<path d="M0 0 C0.33 0 0.66 0 1 0 C1 33 1 66 1 100 C0.67 100 0.34 100 0 100 C-0.33 75.91 -0.66 51.82 -1 27 C-1.66 27.33 -2.32 27.66 -3 28 C-3.97299156 23.14270355 -4.12038805 18.5499375 -4.0625 13.625 C-4.05798828 12.88894531 -4.05347656 12.15289062 -4.04882812 11.39453125 C-4.03715142 9.59631842 -4.01922011 7.79814803 -4 6 C-2.68 5.67 -1.36 5.34 0 5 C0 3.35 0 1.7 0 0 Z " fill="#EEEFEF" transform="translate(269,162)"/>
<path d="M0 0 C1.32 0.33 2.64 0.66 4 1 C5.22643385 17.99486913 5.10250747 34.97272067 5 52 C4.01 51.67 3.02 51.34 2 51 C1.67 45.39 1.34 39.78 1 34 C0.67 34 0.34 34 0 34 C0 22.78 0 11.56 0 0 Z " fill="#FAFBFB" transform="translate(311,181)"/>
<path d="M0 0 C13.2 0 26.4 0 40 0 C39.34 1.65 38.68 3.3 38 5 C23.81 5 9.62 5 -5 5 C-5 4.34 -5 3.68 -5 3 C-3.02 2.67 -1.04 2.34 1 2 C0.67 1.34 0.34 0.68 0 0 Z " fill="#E4E4E4" transform="translate(271,263)"/>
<path d="M0 0 C1.74868612 0.01510569 3.49738517 0.02878347 5.24609375 0.04101562 C9.45605957 0.07348303 13.66537856 0.12492368 17.875 0.1875 C16.885 0.8475 15.895 1.5075 14.875 2.1875 C15.535 2.8475 16.195 3.5075 16.875 4.1875 C15.89217041 4.17702637 14.90934082 4.16655273 13.89672852 4.15576172 C10.212196 4.11926231 6.52767911 4.09649181 2.84301758 4.07763672 C1.25542504 4.06764679 -0.33214943 4.0540502 -1.91967773 4.03662109 C-10.24004704 3.94763319 -18.03742239 3.95644411 -26.125 6.1875 C-29.6875 6.3125 -29.6875 6.3125 -32.125 6.1875 C-32.125 5.5275 -32.125 4.8675 -32.125 4.1875 C-33.115 4.5175 -34.105 4.8475 -35.125 5.1875 C-36.115 4.5275 -37.105 3.8675 -38.125 3.1875 C-25.29081058 0.60611088 -13.07063131 -0.20040794 0 0 Z " fill="#F1F2F3" transform="translate(251.125,118.8125)"/>
<path d="M0 0 C4.62 0 9.24 0 14 0 C14 1.65 14 3.3 14 5 C12.35 5 10.7 5 9 5 C9 9.95 9 14.9 9 20 C7.35 20 5.7 20 4 20 C4 15.05 4 10.1 4 5 C2.35 5 0.7 5 -1 5 C-0.67 3.35 -0.34 1.7 0 0 Z " fill="#FDFDFD" transform="translate(187,286)"/>
<path d="M0 0 C1.32 0 2.64 0 4 0 C4 5.28 4 10.56 4 16 C6.64 16 9.28 16 12 16 C12 17.32 12 18.64 12 20 C7.71 20 3.42 20 -1 20 C-1.02683697 16.85411056 -1.04675902 13.70844729 -1.0625 10.5625 C-1.07087891 9.66466797 -1.07925781 8.76683594 -1.08789062 7.84179688 C-1.09111328 6.98779297 -1.09433594 6.13378906 -1.09765625 5.25390625 C-1.10551147 4.06776733 -1.10551147 4.06776733 -1.11352539 2.85766602 C-1 1 -1 1 0 0 Z " fill="#FDFDFD" transform="translate(225,286)"/>
<path d="M0 0 C0 6.27 0 12.54 0 19 C-1.65 19 -3.3 19 -5 19 C-5.33 15.04 -5.66 11.08 -6 7 C-6.99 7.33 -7.98 7.66 -9 8 C-9.33 6.68 -9.66 5.36 -10 4 C-4.5 -1.125 -4.5 -1.125 0 0 Z " fill="#FDFDFD" transform="translate(313,287)"/>
<path d="M0 0 C-0.66 0.33 -1.32 0.66 -2 1 C1.3 1 4.6 1 8 1 C-3.71901308 6.85950654 -18.24837503 5.22320065 -31 5 C-31 4.67 -31 4.34 -31 4 C-32.65 3.67 -34.3 3.34 -36 3 C-36 2.67 -36 2.34 -36 2 C-34.98015015 1.970271 -34.98015015 1.970271 -33.93969727 1.93994141 C-30.81362259 1.84378718 -27.68813527 1.73447934 -24.5625 1.625 C-23.49322266 1.5940625 -22.42394531 1.563125 -21.32226562 1.53125 C-15.61130998 1.32167365 -10.33579614 0.85573024 -4.82006836 -0.68212891 C-3 -1 -3 -1 0 0 Z " fill="#F7F7F8" transform="translate(277,376)"/>
<path d="M0 0 C0.33 0 0.66 0 1 0 C0.99214478 1.89105469 0.99214478 1.89105469 0.98413086 3.8203125 C0.96594936 8.524244 0.95452013 13.22817243 0.94506836 17.93212891 C0.94005811 19.96305871 0.93324809 21.99398494 0.92456055 24.02490234 C0.91234953 26.95411057 0.90673847 29.88327085 0.90234375 32.8125 C0.89718246 33.71178223 0.89202118 34.61106445 0.88670349 35.53759766 C0.88624325 40.77968145 1.0690923 45.83275067 2 51 C3.92064793 52.5899433 3.92064793 52.5899433 6 53 C3.3333581 54.33332095 1.83319697 53.67102033 -1 53 C-1.61468475 44.22976575 -2.10191584 35.48160336 -2.125 26.6875 C-2.12951172 25.97730713 -2.13402344 25.26711426 -2.13867188 24.53540039 C-2.1289272 21.16983484 -1.85230627 18.23876381 -1 15 C-0.77711499 12.41343327 -0.58685615 9.84047222 -0.4375 7.25 C-0.39431641 6.55261719 -0.35113281 5.85523438 -0.30664062 5.13671875 C-0.20110404 3.42468078 -0.1001009 1.71236439 0 0 Z " fill="#7B7B7B" transform="translate(273,208)"/>
<path d="M0 0 C1.98 0.495 1.98 0.495 4 1 C4 7.27 4 13.54 4 20 C2.35 20 0.7 20 -1 20 C-1.02888514 16.85418577 -1.04675923 13.70840531 -1.0625 10.5625 C-1.07087891 9.66466797 -1.07925781 8.76683594 -1.08789062 7.84179688 C-1.09111328 6.98779297 -1.09433594 6.13378906 -1.09765625 5.25390625 C-1.10551147 4.06776733 -1.10551147 4.06776733 -1.11352539 2.85766602 C-1 1 -1 1 0 0 Z " fill="#FDFDFD" transform="translate(244,286)"/>
<path d="M0 0 C1.41441874 2.82883747 1.31900332 4.87376745 1 8 C-0.625 10 -0.625 10 -3 11 C-8.23076923 9.76923077 -8.23076923 9.76923077 -10 8 C-10.26587831 4.94239943 -10.43409881 2.79159195 -8.9375 0.0625 C-5.81857551 -1.64787795 -3.34442199 -0.80513863 0 0 Z M-6 2 C-6.33 3.32 -6.66 4.64 -7 6 C-5.515 6.99 -5.515 6.99 -4 8 C-3.34 7.34 -2.68 6.68 -2 6 C-2.3185177 3.89179203 -2.3185177 3.89179203 -3 2 C-3.99 2 -4.98 2 -6 2 Z " fill="#DCDCDC" transform="translate(344,320)"/>
<path d="M0 0 C0.33 0 0.66 0 1 0 C1.33 8.25 1.66 16.5 2 25 C2.66 25.33 3.32 25.66 4 26 C3.125 29.875 3.125 29.875 2 31 C1.76807135 32.51469448 1.58784762 34.03754562 1.4375 35.5625 C1.35371094 36.38878906 1.26992188 37.21507812 1.18359375 38.06640625 C1.12300781 38.70449219 1.06242187 39.34257812 1 40 C0.34 40 -0.32 40 -1 40 C-1.02490464 35.58919646 -1.04295604 31.17843129 -1.05493164 26.76757812 C-1.05992943 25.27017503 -1.0667299 23.77277673 -1.07543945 22.27539062 C-1.08770623 20.11066495 -1.09327397 17.94600435 -1.09765625 15.78125 C-1.10289307 14.48251953 -1.10812988 13.18378906 -1.11352539 11.84570312 C-0.9946608 7.81913327 -0.56026769 3.98584904 0 0 Z " fill="#EAEEED" transform="translate(312,207)"/>
<path d="M0 0 C3.0625 0.1875 3.0625 0.1875 5.0625 2.1875 C4.8975 2.97125 4.7325 3.755 4.5625 4.5625 C3.98379477 7.60070245 4.45038051 8.62707492 6.0625 11.1875 C5.340625 11.001875 4.61875 10.81625 3.875 10.625 C0.93423027 10.16754693 -1.07853058 10.45233643 -3.9375 11.1875 C-3.96438151 9.54175434 -3.98384123 7.89588587 -4 6.25 C-4.01160156 5.33347656 -4.02320313 4.41695313 -4.03515625 3.47265625 C-3.88736181 0.01426638 -3.51148462 0.22413732 0 0 Z " fill="#DDDEDE" transform="translate(169.9375,318.8125)"/>
<path d="M0 0 C1.32 0 2.64 0 4 0 C4.33 2.64 4.66 5.28 5 8 C5.33 8 5.66 8 6 8 C6.33 5.36 6.66 2.72 7 0 C7.99 0 8.98 0 10 0 C10.0270043 1.45823212 10.04639787 2.91660675 10.0625 4.375 C10.07410156 5.18710937 10.08570313 5.99921875 10.09765625 6.8359375 C10 9 10 9 9 11 C6.6875 11.875 6.6875 11.875 4 12 C1.6875 10.5625 1.6875 10.5625 0 8 C-0.33107933 5.24100561 -0.18642023 2.79630351 0 0 Z " fill="#D7D7D7" transform="translate(246,319)"/>
<path d="M0 0 C6.40504648 -0.48339973 6.40504648 -0.48339973 9 1.625 C10.32886701 4.78105914 9.87009103 6.73715865 9 10 C8 11 8 11 6.15234375 11.09765625 C4.1015625 11.06510417 2.05078125 11.03255208 0 11 C0 7.37 0 3.74 0 0 Z M3 3 C3 4.98 3 6.96 3 9 C3.99 8.67 4.98 8.34 6 8 C6.33 7.01 6.66 6.02 7 5 C6.67 4.34 6.34 3.68 6 3 C5.01 3 4.02 3 3 3 Z " fill="#DFDFDF" transform="translate(316,319)"/>
<path d="M0 0 C0.99 0 1.98 0 3 0 C3 1.32 3 2.64 3 4 C4.32 4 5.64 4 7 4 C7 2.68 7 1.36 7 0 C7.99 0 8.98 0 10 0 C10 3.63 10 7.26 10 11 C9.01 11 8.02 11 7 11 C7 9.68 7 8.36 7 7 C5.68 7 4.36 7 3 7 C3 8.32 3 9.64 3 11 C2.01 11 1.02 11 0 11 C0 7.37 0 3.74 0 0 Z " fill="#CDCDCD" transform="translate(188,319)"/>
<path d="M0 0 C1.32 0 2.64 0 4 0 C3.51203942 5.09647717 1.69361497 8.66704554 -1.0625 12.875 C-1.43955078 13.46796875 -1.81660156 14.0609375 -2.20507812 14.671875 C-3.12784796 16.12027322 -4.06270263 17.56096031 -5 19 C-5.99 17.68 -6.98 16.36 -8 15 C-7.50628906 14.16855469 -7.01257813 13.33710938 -6.50390625 12.48046875 C-5.86324219 11.39378906 -5.22257812 10.30710937 -4.5625 9.1875 C-3.92441406 8.10855469 -3.28632813 7.02960938 -2.62890625 5.91796875 C-0.919233 3.06819358 -0.919233 3.06819358 0 0 Z " fill="#EFF1F0" transform="translate(363,308)"/>
<path d="M0 0 C5.75 -0.125 5.75 -0.125 8 1 C7.979375 2.093125 7.95875 3.18625 7.9375 4.3125 C7.81455548 7.94384191 7.81455548 7.94384191 9 11 C5.125 10.125 5.125 10.125 4 9 C3.67 9.66 3.34 10.32 3 11 C2.01 11 1.02 11 0 11 C0 7.37 0 3.74 0 0 Z M3 3 C3.33 3.66 3.66 4.32 4 5 C4.33 4.34 4.66 3.68 5 3 C4.34 3 3.68 3 3 3 Z " fill="#D2D3D3" transform="translate(259,319)"/>
<path d="M0 0 C0.28875 0.639375 0.5775 1.27875 0.875 1.9375 C1.82823451 4.15206079 1.82823451 4.15206079 4 5 C4 6.32 4 7.64 4 9 C-5.41002278 9.18451025 -5.41002278 9.18451025 -10 8 C-9.09515208 6.84481082 -8.1755794 5.70114594 -7.25 4.5625 C-6.73953125 3.92441406 -6.2290625 3.28632813 -5.703125 2.62890625 C-3.80332371 0.81189446 -2.56413092 0.39576803 0 0 Z " fill="#FBFBFB" transform="translate(227,224)"/>
<path d="M0 0 C0.99 0 1.98 0 3 0 C3.33 2.64 3.66 5.28 4 8 C4.33 8 4.66 8 5 8 C5.33 5.36 5.66 2.72 6 0 C6.99 0 7.98 0 9 0 C9 3.3 9 6.6 9 10 C6.75 11.125 6.75 11.125 4 12 C2.68 11.34 1.36 10.68 0 10 C0 6.7 0 3.4 0 0 Z " fill="#D4D4D4" transform="translate(304,319)"/>
<path d="M0 0 C1.65 0.33 3.3 0.66 5 1 C5.99 4.3 6.98 7.6 8 11 C6.68 11 5.36 11 4 11 C4 10.34 4 9.68 4 9 C3.401875 9.33 2.80375 9.66 2.1875 10 C0 11 0 11 -3 11 C-2.01 7.37 -1.02 3.74 0 0 Z M2 4 C3 6 3 6 3 6 Z " fill="#D1D2D1" transform="translate(157,319)"/>
<path d="M0 0 C2.33837891 -0.34057617 2.33837891 -0.34057617 5.2265625 -0.29296875 C6.7734375 -0.2784668 6.7734375 -0.2784668 8.3515625 -0.26367188 C9.43179688 -0.23853516 10.51203125 -0.21339844 11.625 -0.1875 C12.71296875 -0.17396484 13.8009375 -0.16042969 14.921875 -0.14648438 C17.61507409 -0.11104754 20.30729374 -0.06164331 23 0 C22.01 0.66 21.02 1.32 20 2 C20.66 2.66 21.32 3.32 22 4 C14.08 3.67 6.16 3.34 -2 3 C-1.34 2.01 -0.68 1.02 0 0 Z " fill="#F5F5F7" transform="translate(246,119)"/>
<path d="M0 0 C2.31 0 4.62 0 7 0 C7 2.31 7 4.62 7 7 C5.68 7 4.36 7 3 7 C3 7.66 3 8.32 3 9 C4.32 9 5.64 9 7 9 C7 9.66 7 10.32 7 11 C4.69 11 2.38 11 0 11 C0 7.37 0 3.74 0 0 Z " fill="#D0D1D1" transform="translate(270,319)"/>
<path d="M0 0 C0.33 0 0.66 0 1 0 C1.05399736 1.45792884 1.09279177 2.91642712 1.125 4.375 C1.14820313 5.18710938 1.17140625 5.99921875 1.1953125 6.8359375 C1 9 1 9 -1 11 C-3.15478516 11.22705078 -3.15478516 11.22705078 -5.7890625 11.1953125 C-6.73007813 11.18886719 -7.67109375 11.18242187 -8.640625 11.17578125 C-9.62546875 11.15902344 -10.6103125 11.14226562 -11.625 11.125 C-12.61757812 11.11597656 -13.61015625 11.10695312 -14.6328125 11.09765625 C-17.08878134 11.07404116 -19.54427168 11.04110799 -22 11 C-22 10.67 -22 10.34 -22 10 C-16.72 10 -11.44 10 -6 10 C-5.67 8.35 -5.34 6.7 -5 5 C-4.34 5 -3.68 5 -3 5 C-2.690625 4.360625 -2.38125 3.72125 -2.0625 3.0625 C-1 1 -1 1 0 0 Z " fill="#7D7D7D" transform="translate(232,232)"/>
<path d="M0 0 C0 0.99 0 1.98 0 3 C-0.99 3.495 -0.99 3.495 -2 4 C-1.484375 4.4125 -0.96875 4.825 -0.4375 5.25 C0.036875 5.8275 0.51125 6.405 1 7 C0.6875 9.1875 0.6875 9.1875 0 11 C-3.01031744 11.93423645 -3.86650268 12.04449911 -7 11 C-7 10.01 -7 9.02 -7 8 C-5.68 8.33 -4.36 8.66 -3 9 C-3 8.34 -3 7.68 -3 7 C-4.32 6.34 -5.64 5.68 -7 5 C-7 3.68 -7 2.36 -7 1 C-4.53721199 -0.231394 -2.7204945 -0.07159196 0 0 Z " fill="#C9CAC9" transform="translate(291,319)"/>
<path d="M0 0 C0.33 0.99 0.66 1.98 1 3 C-0.65 3 -2.3 3 -4 3 C-3.67 4.65 -3.34 6.3 -3 8 C-1.68 8 -0.36 8 1 8 C1 8.99 1 9.98 1 11 C-1.97788882 11.90991047 -3.43497994 12.25960381 -6.3125 10.9375 C-8 9 -8 9 -8.4375 6 C-8 3 -8 3 -6.8125 1.125 C-4.43963721 -0.34781139 -2.74086056 -0.22223194 0 0 Z " fill="#D7D8D7" transform="translate(185,319)"/>
<path d="M0 0 C0.99 0.33 1.98 0.66 3 1 C2.67 1.66 2.34 2.32 2 3 C1.56075441 8.67954768 1.76277657 13.68659435 4 19 C3.34 19.66 2.68 20.32 2 21 C1.69940057 23.36509361 1.50484988 25.74441881 1.375 28.125 C1.30023438 29.40632813 1.22546875 30.68765625 1.1484375 32.0078125 C1.09945312 32.99523437 1.05046875 33.98265625 1 35 C1.99 35 2.98 35 4 35 C3 37 3 37 0 39 C0 26.13 0 13.26 0 0 Z " fill="#D1D1D1" transform="translate(236,207)"/>
<path d="M0 0 C4.95315883 3.04114919 8.83429549 6.59045124 12.875 10.75 C13.76445312 11.65298828 13.76445312 11.65298828 14.671875 12.57421875 C16.11923124 14.04491945 17.5602763 15.5218267 19 17 C16 17 16 17 14.09765625 15.35546875 C13.42605469 14.64003906 12.75445312 13.92460937 12.0625 13.1875 C9.52540747 10.50375472 7.08974982 8.04478224 4 6 C3.34 6 2.68 6 2 6 C1.67 8.97 1.34 11.94 1 15 C0.34 14.34 -0.32 13.68 -1 13 C-0.9765625 9.9609375 -0.9765625 9.9609375 -0.625 6.375 C-0.51414062 5.18648437 -0.40328125 3.99796875 -0.2890625 2.7734375 C-0.19367188 1.85820312 -0.09828125 0.94296875 0 0 Z " fill="#B8BAB9" transform="translate(272,145)"/>
<path d="M0 0 C1.4540625 0.0309375 1.4540625 0.0309375 2.9375 0.0625 C2.9375 2.3725 2.9375 4.6825 2.9375 7.0625 C1.9475 7.0625 0.9575 7.0625 -0.0625 7.0625 C-0.0625 7.7225 -0.0625 8.3825 -0.0625 9.0625 C1.2575 9.3925 2.5775 9.7225 3.9375 10.0625 C2.9375 11.0625 2.9375 11.0625 -0.125 11.125 C-1.094375 11.104375 -2.06375 11.08375 -3.0625 11.0625 C-4.68901522 7.80946956 -4.17703156 4.67024398 -4.0625 1.0625 C-3.0625 0.0625 -3.0625 0.0625 0 0 Z " fill="#DADBDA" transform="translate(220.0625,318.9375)"/>
<path d="M0 0 C0 0.99 0 1.98 0 3 C-1.32 3.33 -2.64 3.66 -4 4 C-4 5.32 -4 6.64 -4 8 C-2.68 8 -1.36 8 0 8 C0 8.99 0 9.98 0 11 C-3.01031744 11.93423645 -3.86650268 12.04449911 -7 11 C-8.52150158 7.95699684 -8.23899393 5.345915 -8 2 C-4.77208445 -0.1519437 -3.71599191 -0.20086443 0 0 Z " fill="#D5D7D6" transform="translate(234,319)"/>
<path d="M0 0 C0.66 0 1.32 0 2 0 C3.06723961 3.46222615 3.10173486 6.64039266 3.0625 10.25 C3.05347656 11.32765625 3.04445312 12.4053125 3.03515625 13.515625 C3.02355469 14.33546875 3.01195312 15.1553125 3 16 C1.35 15.67 -0.3 15.34 -2 15 C-1.34 14.67 -0.68 14.34 0 14 C-0.37125 12.80375 -0.7425 11.6075 -1.125 10.375 C-2.15732434 6.34606752 -1.73101363 3.84669696 0 0 Z " fill="#9D9F9E" transform="translate(229,207)"/>
<path d="M0 0 C2.97 0 5.94 0 9 0 C9 0.99 9 1.98 9 3 C8.01 3 7.02 3 6 3 C6 5.64 6 8.28 6 11 C5.01 11 4.02 11 3 11 C3 8.36 3 5.72 3 3 C2.01 3 1.02 3 0 3 C0 2.01 0 1.02 0 0 Z " fill="#D6D7D6" transform="translate(236,319)"/>
<path d="M0 0 C2.97 0 5.94 0 9 0 C9 0.99 9 1.98 9 3 C8.01 3 7.02 3 6 3 C6 5.64 6 8.28 6 11 C5.01 11 4.02 11 3 11 C3 8.36 3 5.72 3 3 C2.01 3 1.02 3 0 3 C0 2.01 0 1.02 0 0 Z " fill="#BFBFBF" transform="translate(293,319)"/>
<path d="M0 0 C2.97 0 5.94 0 9 0 C9 0.99 9 1.98 9 3 C8.01 3 7.02 3 6 3 C6 5.64 6 8.28 6 11 C5.01 11 4.02 11 3 11 C3 8.36 3 5.72 3 3 C2.01 3 1.02 3 0 3 C0 2.01 0 1.02 0 0 Z " fill="#CFD0D0" transform="translate(206,319)"/>
<path d="M0 0 C4.62 0 9.24 0 14 0 C12.515 2.475 12.515 2.475 11 5 C10.67 5.66 10.34 6.32 10 7 C7.0625 5.6875 7.0625 5.6875 4 4 C3.67 3.01 3.34 2.02 3 1 C2.01 0.67 1.02 0.34 0 0 Z " fill="#ACACAC" transform="translate(217,233)"/>
<path d="M0 0 C0.33 0 0.66 0 1 0 C1 2.64 1 5.28 1 8 C1.66 7.01 2.32 6.02 3 5 C2.88506243 6.89646998 2.75760358 8.79218332 2.625 10.6875 C2.55539062 11.74324219 2.48578125 12.79898437 2.4140625 13.88671875 C2.01239911 16.90677269 1.25930981 19.24078054 0 22 C-1.2380014 18.42355152 -0.74926071 15.66305234 0 12 C-0.66 12 -1.32 12 -2 12 C-1.85904936 10.3745692 -1.71207913 8.74965949 -1.5625 7.125 C-1.48128906 6.22007812 -1.40007812 5.31515625 -1.31640625 4.3828125 C-1 2 -1 2 0 0 Z " fill="#FBFCFC" transform="translate(377,265)"/>
<path d="M0 0 C3.4375 1.3125 3.4375 1.3125 7 3 C7.33 3.99 7.66 4.98 8 6 C8.66 6 9.32 6 10 6 C10 6.66 10 7.32 10 8 C10.99 8.33 11.98 8.66 13 9 C6.77012202 8.49487476 1.54525767 5.67395877 -4 3 C-3.01 2.67 -2.02 2.34 -1 2 C-0.67 1.34 -0.34 0.68 0 0 Z " fill="#F5F5F5" transform="translate(196,366)"/>
<path d="M0 0 C4.875 0.875 4.875 0.875 6 2 C6.07319621 4.69654854 6.09242537 7.36691458 6.0625 10.0625 C6.05798828 10.82111328 6.05347656 11.57972656 6.04882812 12.36132812 C6.0370068 14.24091871 6.01907078 16.12046899 6 18 C5.01 17.67 4.02 17.34 3 17 C3.33 16.67 3.66 16.34 4 16 C4.37404967 9.87608568 4.37404967 9.87608568 3 4 C2.01 3.67 1.02 3.34 0 3 C0 2.01 0 1.02 0 0 Z " fill="#C6C6C6" transform="translate(228,225)"/>
<path d="M0 0 C1.78580669 2.67871003 2.3430455 3.99677943 3 7 C3.33 7.99 3.66 8.98 4 10 C4.12781786 12.67394964 4.04391871 15.32095857 4 18 C1.29971488 15.17745787 0.07075428 13.60353399 -0.390625 9.66796875 C-0.34421875 8.51941406 -0.2978125 7.37085938 -0.25 6.1875 C-0.21390625 5.02605469 -0.1778125 3.86460937 -0.140625 2.66796875 C-0.07101563 1.34732422 -0.07101563 1.34732422 0 0 Z " fill="#F4F4F4" transform="translate(120,263)"/>
<path d="M0 0 C0.66 0 1.32 0 2 0 C3.17293889 6.3778552 4.29530838 12.50321562 4 19 C3.34 17.68 2.68 16.36 2 15 C1.01 15.495 1.01 15.495 0 16 C-0.87890625 9.84765625 -0.87890625 9.84765625 -1 8 C-0.67 7.67 -0.34 7.34 0 7 C0.04092937 4.66702567 0.04241723 2.33294775 0 0 Z " fill="#FBFBFB" transform="translate(377,219)"/>
<path d="M0 0 C1.4540625 0.0309375 1.4540625 0.0309375 2.9375 0.0625 C3.5975 1.3825 4.2575 2.7025 4.9375 4.0625 C4.298125 4.18625 3.65875 4.31 3 4.4375 C1.9790625 4.746875 1.9790625 4.746875 0.9375 5.0625 C0.6075 5.7225 0.2775 6.3825 -0.0625 7.0625 C-1.0525 7.0625 -2.0425 7.0625 -3.0625 7.0625 C-3.44383299 5.0710944 -3.77575582 3.06970923 -4.0625 1.0625 C-3.0625 0.0625 -3.0625 0.0625 0 0 Z " fill="#D2D5D3" transform="translate(170.0625,318.9375)"/>
<path d="M0 0 C2.475 0.495 2.475 0.495 5 1 C5 1.66 5 2.32 5 3 C4.34 3 3.68 3 3 3 C3.33 5.64 3.66 8.28 4 11 C2.68 11 1.36 11 0 11 C0 7.37 0 3.74 0 0 Z " fill="#D7D7D7" transform="translate(316,319)"/>
<path d="M0 0 C-3.64116773 3.33773709 -7.28607242 3.97864902 -12 5 C-11.67 4.34 -11.34 3.68 -11 3 C-10.01 3 -9.02 3 -8 3 C-8.33 2.67 -8.66 2.34 -9 2 C-11.00720923 2.28674418 -13.0085944 2.61866701 -15 3 C-10.55603856 -2.11055566 -6.19525458 -0.92928819 0 0 Z " fill="#F5F5F6" transform="translate(301,371)"/>
<path d="M0 0 C2 2 2 2 2.1953125 3.9453125 C2.13020833 5.96354167 2.06510417 7.98177083 2 10 C0.68 10.33 -0.64 10.66 -2 11 C-2.05399736 9.54207116 -2.09279177 8.08357288 -2.125 6.625 C-2.15980469 5.40683594 -2.15980469 5.40683594 -2.1953125 4.1640625 C-2 2 -2 2 0 0 Z " fill="#F1F2F1" transform="translate(224,190)"/>
<path d="M0 0 C0.33 0 0.66 0 1 0 C2.51233701 6.46794133 3.21432579 12.35590042 3 19 C1 18 1 18 0 15 C-0.07029121 12.42734182 -0.09370832 9.88358569 -0.0625 7.3125 C-0.05798828 6.61060547 -0.05347656 5.90871094 -0.04882812 5.18554688 C-0.03706927 3.45699462 -0.01913454 1.72848635 0 0 Z " fill="#EFEFEF" transform="translate(378,228)"/>
<path d="M0 0 C0.99 0.33 1.98 0.66 3 1 C2.34 1.66 1.68 2.32 1 3 C0.62904292 5.42246595 0.62904292 5.42246595 0.5859375 8.2265625 C0.54726563 9.2578125 0.50859375 10.2890625 0.46875 11.3515625 C0.4378125 12.43179688 0.406875 13.51203125 0.375 14.625 C0.33632813 15.71296875 0.29765625 16.8009375 0.2578125 17.921875 C0.16333753 20.61441165 0.07777569 23.30693757 0 26 C-0.33 26 -0.66 26 -1 26 C-2.37072965 8.813159 -2.37072965 8.813159 -1 1 C-0.67 0.67 -0.34 0.34 0 0 Z " fill="#737675" transform="translate(274,150)"/>
<path d="M0 0 C0 0.99 0 1.98 0 3 C0.66 3.33 1.32 3.66 2 4 C2 4.66 2 5.32 2 6 C0.04072937 7.7143618 -1.95880212 9.38405168 -4 11 C-4.33 10.01 -4.66 9.02 -5 8 C-5.66 7.67 -6.32 7.34 -7 7 C-4.69 4.69 -2.38 2.38 0 0 Z " fill="#EEEEF1" transform="translate(344,336)"/>
<path d="M0 0 C0.99 0 1.98 0 3 0 C3 3.63 3 7.26 3 11 C2.01 11 1.02 11 0 11 C0 7.37 0 3.74 0 0 Z " fill="#C7C7C7" transform="translate(201,319)"/>
<path d="M0 0 C2.31 0.33 4.62 0.66 7 1 C7 3.31 7 5.62 7 8 C6.34 8 5.68 8 5 8 C4.67 6.68 4.34 5.36 4 4 C2.35 4 0.7 4 -1 4 C-0.67 2.68 -0.34 1.36 0 0 Z " fill="#D3D4D4" transform="translate(337,319)"/>
<path d="M0 0 C0.99 0 1.98 0 3 0 C3 3.63 3 7.26 3 11 C2.01 11 1.02 11 0 11 C0 7.37 0 3.74 0 0 Z " fill="#DDDDDD" transform="translate(329,319)"/>
<path d="M0 0 C0.391875 0.495 0.78375 0.99 1.1875 1.5 C3.55091715 3.45593143 5.01435003 3.24207973 8 3 C7.34 5.31 6.68 7.62 6 10 C5.34 8.68 4.68 7.36 4 6 C3.01 6 2.02 6 1 6 C0.67 6.66 0.34 7.32 0 8 C0 5.36 0 2.72 0 0 Z " fill="#6B6C6C" transform="translate(210,222)"/>
<path d="M0 0 C1.9451 2.91765 2.45276317 4.62537285 3 8 C0 10 0 10 -3 10 C-2.01 6.7 -1.02 3.4 0 0 Z " fill="#D9D9D9" transform="translate(157,320)"/>
<path d="M0 0 C1.99312169 2.98968253 2.21199578 3.70837468 2.375 7.0625 C2.52925597 11.02897053 2.52925597 11.02897053 5.0625 12.5 C5.701875 12.665 6.34125 12.83 7 13 C4.3333581 14.33332095 2.83319697 13.67102033 0 13 C-0.19466332 11.20909747 -0.38051213 9.41723495 -0.5625 7.625 C-0.66691406 6.62726563 -0.77132813 5.62953125 -0.87890625 4.6015625 C-1 2 -1 2 0 0 Z " fill="#898989" transform="translate(272,248)"/>
<path d="M0 0 C0.99 0 1.98 0 3 0 C3 2.97 3 5.94 3 9 C2.01 9.33 1.02 9.66 0 10 C0 6.7 0 3.4 0 0 Z " fill="#C9C9C9" transform="translate(304,319)"/>
<path d="M0 0 C1.32 0 2.64 0 4 0 C4.33 2.97 4.66 5.94 5 9 C4.34 9 3.68 9 3 9 C2.67 8.01 2.34 7.02 2 6 C1.01 6.495 1.01 6.495 0 7 C0 4.69 0 2.38 0 0 Z " fill="#DCDCDC" transform="translate(246,319)"/>
<path d="M0 0 C4.88049925 3.9419417 9.0580583 8.11950075 13 13 C9.8731209 11.61867539 7.80079608 10.02096237 5.4375 7.5625 C4.85871094 6.96566406 4.27992188 6.36882812 3.68359375 5.75390625 C3.12800781 5.17511719 2.57242187 4.59632813 2 4 C1.0022753 2.99772986 0.00304412 1.99694659 -1 1 C-0.67 0.67 -0.34 0.34 0 0 Z " fill="#959592" transform="translate(278,150)"/>
<path d="M0 0 C5.43654822 -0.5177665 5.43654822 -0.5177665 8 0 C8.99 0.99 9.98 1.98 11 3 C6.71 3 2.42 3 -2 3 C-1.34 2.01 -0.68 1.02 0 0 Z " fill="#FBFBFC" transform="translate(246,119)"/>
<path d="M0 0 C0.99 0 1.98 0 3 0 C3 2.97 3 5.94 3 9 C2.01 8.67 1.02 8.34 0 8 C0 5.36 0 2.72 0 0 Z " fill="#CECECE" transform="translate(253,319)"/>
<path d="M0 0 C1.32 0 2.64 0 4 0 C3.67 1.32 3.34 2.64 3 4 C-0.01031744 4.93423645 -0.86650268 5.04449911 -4 4 C-4 3.01 -4 2.02 -4 1 C-2.68 1.33 -1.36 1.66 0 2 C0 1.34 0 0.68 0 0 Z " fill="#D3D3D3" transform="translate(288,326)"/>
<path d="M0 0 C0.99 0.33 1.98 0.66 3 1 C3 1.66 3 2.32 3 3 C4.32 3.33 5.64 3.66 7 4 C6 5 6 5 3.75 5.1875 C0.79437936 4.98598041 -1.32037079 4.22497335 -4 3 C-2.68 2.67 -1.36 2.34 0 2 C0 1.34 0 0.68 0 0 Z " fill="#E6E6E6" transform="translate(226,375)"/>
<path d="M0 0 C2.64 0.33 5.28 0.66 8 1 C8 1.66 8 2.32 8 3 C8.99 3.33 9.98 3.66 11 4 C8 5 8 5 5.95703125 4.22265625 C5.24933594 3.83980469 4.54164063 3.45695312 3.8125 3.0625 C3.09707031 2.68222656 2.38164062 2.30195313 1.64453125 1.91015625 C1.10183594 1.60980469 0.55914062 1.30945313 0 1 C0 0.67 0 0.34 0 0 Z " fill="#EAEAEA" transform="translate(201,370)"/>
<path d="M0 0 C2.97 0 5.94 0 9 0 C9 0.99 9 1.98 9 3 C8.2575 2.814375 7.515 2.62875 6.75 2.4375 C4.05009037 2.00796892 2.55368923 2.14877026 0 3 C0 2.01 0 1.02 0 0 Z " fill="#CBCBCB" transform="translate(293,319)"/>
<path d="M0 0 C1 3 1 3 1 5 C1.33 5.99 1.66 6.98 2 8 C1.67 8.66 1.34 9.32 1 10 C-0.32 9.67 -1.64 9.34 -3 9 C-1.125 2.25 -1.125 2.25 0 0 Z " fill="#F1F2F1" transform="translate(132,189)"/>
<path d="M0 0 C0 0.99 0 1.98 0 3 C0.66 3.66 1.32 4.32 2 5 C0.35 5.66 -1.3 6.32 -3 7 C-3.99 6.01 -4.98 5.02 -6 4 C-4.02 2.68 -2.04 1.36 0 0 Z " fill="#F2F2F3" transform="translate(183,135)"/>
<path d="M0 0 C0.66 0 1.32 0 2 0 C2.66 2.64 3.32 5.28 4 8 C2.0625 7.3125 2.0625 7.3125 0 6 C-0.8125 3.4375 -0.8125 3.4375 -1 1 C-0.67 0.67 -0.34 0.34 0 0 Z " fill="#EAEAEA" transform="translate(365,188)"/>
<path d="M0 0 C1.32 1.65 2.64 3.3 4 5 C2.02 5.99 2.02 5.99 0 7 C-1.32 5.02 -2.64 3.04 -4 1 C-3.01 1.33 -2.02 1.66 -1 2 C-0.67 1.34 -0.34 0.68 0 0 Z " fill="#F4F4F4" transform="translate(354,169)"/>
<path d="M0 0 C3.34373475 0.55728913 6.03312999 1.35173889 9 3 C6.36 3.66 3.72 4.32 1 5 C0.67 3.35 0.34 1.7 0 0 Z " fill="#F2F2F2" transform="translate(201,126)"/>
<path d="M0 0 C0.66 0 1.32 0 2 0 C1.67 2.31 1.34 4.62 1 7 C0.01 7.33 -0.98 7.66 -2 8 C-1.125 1.125 -1.125 1.125 0 0 Z " fill="#EEF0F0" transform="translate(368,299)"/>
<path d="M0 0 C0.66 0.33 1.32 0.66 2 1 C2 1.66 2 2.32 2 3 C1.34 3 0.68 3 0 3 C0 3.66 0 4.32 0 5 C-2.5 6.625 -2.5 6.625 -5 8 C-4.45773019 4.20411134 -2.79872437 2.52788007 0 0 Z " fill="#E5E7E5" transform="translate(164,149)"/>
<path d="M0 0 C0.99 0.99 1.98 1.98 3 3 C2.34 4.65 1.68 6.3 1 8 C-1 6 -1 6 -1.1875 3.4375 C-1 1 -1 1 0 0 Z " fill="#B1B2B2" transform="translate(225,206)"/>
<path d="M0 0 C0.33 0.66 0.66 1.32 1 2 C-2.4019487 4.09350689 -5.05272412 4.17942163 -9 4 C-7.02579865 1.47740939 -6.03254358 1.0070192 -2.8125 0.3125 C-1.4203125 0.1578125 -1.4203125 0.1578125 0 0 Z " fill="#E7E7E8" transform="translate(292,372)"/>
<path d="M0 0 C0.66 0 1.32 0 2 0 C2 1.98 2 3.96 2 6 C0.68 6 -0.64 6 -2 6 C-1.34 4.02 -0.68 2.04 0 0 Z " fill="#6B6B6B" transform="translate(231,235)"/>
<path d="M0 0 C2.31 0 4.62 0 7 0 C6.67 0.99 6.34 1.98 6 3 C4.35 3 2.7 3 1 3 C0.67 2.01 0.34 1.02 0 0 Z " fill="#EFEFEF" transform="translate(220,234)"/>
<path d="M0 0 C4.75 0.875 4.75 0.875 7 2 C6.67 2.99 6.34 3.98 6 5 C4.02 4.01 2.04 3.02 0 2 C0 1.34 0 0.68 0 0 Z " fill="#E6E6E6" transform="translate(189,364)"/>
<path d="M0 0 C2.31 0 4.62 0 7 0 C7 0.99 7 1.98 7 3 C4.69 3 2.38 3 0 3 C0 2.01 0 1.02 0 0 Z " fill="#D6D7D6" transform="translate(270,319)"/>
<path d="M0 0 C2.475 0.99 2.475 0.99 5 2 C4.01 2.495 4.01 2.495 3 3 C3 3.66 3 4.32 3 5 C3.99 5.33 4.98 5.66 6 6 C5.01 6.495 5.01 6.495 4 7 C2 5.75 2 5.75 0 4 C0 2.68 0 1.36 0 0 Z " fill="#F2F2F2" transform="translate(186,361)"/>
<path d="M0 0 C1.65 0 3.3 0 5 0 C5 0.99 5 1.98 5 3 C3.1875 3.625 3.1875 3.625 1 4 C0.01 3.34 -0.98 2.68 -2 2 C-1.34 2 -0.68 2 0 2 C0 1.34 0 0.68 0 0 Z " fill="#DEDFDF" transform="translate(229,327)"/>
<path d="M0 0 C0.99 0.66 1.98 1.32 3 2 C2.67 3.32 2.34 4.64 2 6 C1.01 5.67 0.02 5.34 -1 5 C-1.33 5.66 -1.66 6.32 -2 7 C-1.125 2.25 -1.125 2.25 0 0 Z " fill="#F9FAFA" transform="translate(373,285)"/>
<path d="M0 0 C0.66 0 1.32 0 2 0 C2 1.65 2 3.3 2 5 C1.34 5 0.68 5 0 5 C0 5.66 0 6.32 0 7 C-0.66 6.67 -1.32 6.34 -2 6 C-1.34 4.02 -0.68 2.04 0 0 Z " fill="#909191" transform="translate(229,207)"/>
<path d="M0 0 C0.66 0.33 1.32 0.66 2 1 C2.73075648 3.3140622 3.40138258 5.64828869 4 8 C2.02 7.01 0.04 6.02 -2 5 C-1.67 4.34 -1.34 3.68 -1 3 C-0.34 3.33 0.32 3.66 1 4 C0.67 2.68 0.34 1.36 0 0 Z " fill="#F7F7F7" transform="translate(368,192)"/>
<path d="M0 0 C1.32 0 2.64 0 4 0 C4.33 1.65 4.66 3.3 5 5 C3.68 4.67 2.36 4.34 1 4 C0.67 2.68 0.34 1.36 0 0 Z " fill="#E6E6E6" transform="translate(342,158)"/>
<path d="M0 0 C0.99 0.33 1.98 0.66 3 1 C2.34 1.66 1.68 2.32 1 3 C0.53993654 5.20250992 0.53993654 5.20250992 0.375 7.625 C0.30023438 8.44226563 0.22546875 9.25953125 0.1484375 10.1015625 C0.07496094 11.04128906 0.07496094 11.04128906 0 12 C-0.33 12 -0.66 12 -1 12 C-1.02687279 10.18757948 -1.04633715 8.37504767 -1.0625 6.5625 C-1.07410156 5.55316406 -1.08570313 4.54382813 -1.09765625 3.50390625 C-1 1 -1 1 0 0 Z " fill="#676968" transform="translate(274,150)"/>
<path d="" fill="#000000" transform="translate(0,0)"/>
<path d="" fill="#000000" transform="translate(0,0)"/>
<path d="" fill="#000000" transform="translate(0,0)"/>
<path d="" fill="#000000" transform="translate(0,0)"/>
<path d="" fill="#000000" transform="translate(0,0)"/>
<path d="" fill="#000000" transform="translate(0,0)"/>
<path d="" fill="#000000" transform="translate(0,0)"/>
<path d="" fill="#000000" transform="translate(0,0)"/>
<path d="" fill="#000000" transform="translate(0,0)"/>
<path d="" fill="#000000" transform="translate(0,0)"/>
<path d="" fill="#000000" transform="translate(0,0)"/>
<path d="" fill="#000000" transform="translate(0,0)"/>
<path d="" fill="#000000" transform="translate(0,0)"/>
<path d="" fill="#000000" transform="translate(0,0)"/>
<path d="" fill="#000000" transform="translate(0,0)"/>
<path d="" fill="#000000" transform="translate(0,0)"/>
<path d="" fill="#000000" transform="translate(0,0)"/>
<path d="" fill="#000000" transform="translate(0,0)"/>
<path d="" fill="#000000" transform="translate(0,0)"/>
<path d="" fill="#000000" transform="translate(0,0)"/>
<path d="" fill="#000000" transform="translate(0,0)"/>
<path d="" fill="#000000" transform="translate(0,0)"/>
<path d="" fill="#000000" transform="translate(0,0)"/>
<path d="" fill="#000000" transform="translate(0,0)"/>
<path d="" fill="#000000" transform="translate(0,0)"/>
<path d="" fill="#000000" transform="translate(0,0)"/>
<path d="" fill="#000000" transform="translate(0,0)"/>
<path d="" fill="#000000" transform="translate(0,0)"/>
<path d="" fill="#000000" transform="translate(0,0)"/>
<path d="" fill="#000000" transform="translate(0,0)"/>
<path d="" fill="#000000" transform="translate(0,0)"/>
<path d="" fill="#000000" transform="translate(0,0)"/>
<path d="" fill="#000000" transform="translate(0,0)"/>
<path d="" fill="#000000" transform="translate(0,0)"/>
<path d="" fill="#000000" transform="translate(0,0)"/>
<path d="" fill="#000000" transform="translate(0,0)"/>
<path d="" fill="#000000" transform="translate(0,0)"/>
<path d="" fill="#000000" transform="translate(0,0)"/>
<path d="" fill="#000000" transform="translate(0,0)"/>
<path d="" fill="#000000" transform="translate(0,0)"/>
<path d="" fill="#000000" transform="translate(0,0)"/>
<path d="" fill="#000000" transform="translate(0,0)"/>
<path d="" fill="#000000" transform="translate(0,0)"/>
<path d="" fill="#000000" transform="translate(0,0)"/>
<path d="" fill="#000000" transform="translate(0,0)"/>
<path d="" fill="#000000" transform="translate(0,0)"/>
<path d="" fill="#000000" transform="translate(0,0)"/>
<path d="" fill="#000000" transform="translate(0,0)"/>
<path d="" fill="#000000" transform="translate(0,0)"/>
<path d="" fill="#000000" transform="translate(0,0)"/>
<path d="" fill="#000000" transform="translate(0,0)"/>
<path d="" fill="#000000" transform="translate(0,0)"/>
<path d="" fill="#000000" transform="translate(0,0)"/>
<path d="" fill="#000000" transform="translate(0,0)"/>
<path d="" fill="#000000" transform="translate(0,0)"/>
<path d="" fill="#000000" transform="translate(0,0)"/>
<path d="" fill="#000000" transform="translate(0,0)"/>
<path d="" fill="#000000" transform="translate(0,0)"/>
<path d="" fill="#000000" transform="translate(0,0)"/>
<path d="" fill="#000000" transform="translate(0,0)"/>
<path d="" fill="#000000" transform="translate(0,0)"/>
<path d="" fill="#000000" transform="translate(0,0)"/>
<path d="" fill="#000000" transform="translate(0,0)"/>
<path d="" fill="#000000" transform="translate(0,0)"/>
<path d="" fill="#000000" transform="translate(0,0)"/>
<path d="" fill="#000000" transform="translate(0,0)"/>
<path d="" fill="#000000" transform="translate(0,0)"/>
<path d="" fill="#000000" transform="translate(0,0)"/>
<path d="" fill="#000000" transform="translate(0,0)"/>
<path d="" fill="#000000" transform="translate(0,0)"/>
<path d="" fill="#000000" transform="translate(0,0)"/>
<path d="" fill="#000000" transform="translate(0,0)"/>
<path d="" fill="#000000" transform="translate(0,0)"/>
<path d="" fill="#000000" transform="translate(0,0)"/>
<path d="" fill="#000000" transform="translate(0,0)"/>
<path d="" fill="#000000" transform="translate(0,0)"/>
</svg>
